<mxfile host="app.diagrams.net" modified="2024-05-31T07:49:20.397Z" agent="Mozilla/5.0 (Windows NT 10.0; Win64; x64) AppleWebKit/537.36 (KHTML, like Gecko) Chrome/125.0.0.0 Safari/537.36" version="24.4.10" etag="asr_w6XMD-KIl6U_QJJW" type="github">
  <diagram name="페이지-1" id="JY1om4XTpXSaQG3ujG1O">
    <mxGraphModel>
      <root>
        <mxCell id="0" />
        <mxCell id="1" parent="0" />
      </root>
    </mxGraphModel>
  </diagram>
</mxfile>
